<svg width="21" height="42" viewBox="0 0 21 42" fill="none" xmlns="http://www.w3.org/2000/svg">
<path d="M0.19822 22.1216C-0.0818132 22.3239 -0.0636983 22.9117 0.243435 23.0948V23.1044C0.604769 23.3261 0.975117 23.5284 1.35452 23.6826C5.07626 25.1665 7.71398 27.5947 8.49988 32.1814C8.95155 34.8602 9.38516 36.9897 9.08706 41.2006C9.00576 42.4436 10.8034 42.1546 10.8305 40.9019C10.8576 39.8034 10.8395 38.676 10.975 37.6161C11.77 31.3624 13.8838 25.0702 18.9063 22.5937C19.3489 22.3721 19.9813 22.1987 19.9993 21.5434C20.0264 20.5317 19.2044 20.7822 18.7256 20.5702C14.1276 18.5081 11.3364 13.6998 10.5776 7.64848C10.4511 6.68489 10.7853 2.46438 9.85486 2.05004C8.49986 1.47189 8.9877 6.07783 8.9877 6.89688C8.96964 9.90328 8.54504 12.7555 7.09067 15.2223C5.43757 18.0263 3.51347 20.4449 0.839597 21.7169C0.613763 21.8229 0.405987 21.9674 0.19822 22.1216Z" fill="white"/>
</svg>
