<svg width="20" height="40" viewBox="0 0 20 40" fill="none" xmlns="http://www.w3.org/2000/svg">
<path d="M0.19822 20.1216C-0.0818132 20.3239 -0.0636983 20.9117 0.243435 21.0948V21.1044C0.604769 21.3261 0.975117 21.5284 1.35452 21.6826C5.07626 23.1665 7.71398 25.5947 8.49988 30.1814C8.95155 32.8602 9.38516 34.9897 9.08706 39.2006C9.00576 40.4436 10.8034 40.1546 10.8305 38.9019C10.8576 37.8034 10.8395 36.676 10.975 35.6161C11.77 29.3624 13.8838 23.0702 18.9063 20.5937C19.3489 20.3721 19.9813 20.1987 19.9993 19.5434C20.0264 18.5317 19.2044 18.7822 18.7256 18.5702C14.1276 16.5081 11.3364 11.6998 10.5776 5.64848C10.4511 4.68489 10.7853 0.464381 9.85486 0.0500388C8.49986 -0.528114 8.9877 4.07783 8.9877 4.89688C8.96964 7.90328 8.54504 10.7555 7.09067 13.2223C5.43757 16.0263 3.51347 18.4449 0.839597 19.7169C0.613763 19.8229 0.405987 19.9674 0.19822 20.1216Z" fill="white"/>
</svg>
