<svg width="21" height="45" viewBox="0 0 21 45" fill="none" xmlns="http://www.w3.org/2000/svg">
<path d="M0.19822 25.1216C-0.0818132 25.3239 -0.0636983 25.9117 0.243435 26.0948V26.1044C0.604769 26.3261 0.975117 26.5284 1.35452 26.6826C5.07626 28.1665 7.71398 30.5947 8.49988 35.1814C8.95155 37.8602 9.38516 39.9897 9.08706 44.2006C9.00576 45.4436 10.8034 45.1546 10.8305 43.9019C10.8576 42.8034 10.8395 41.676 10.975 40.6161C11.77 34.3624 13.8838 28.0702 18.9063 25.5937C19.3489 25.3721 19.9813 25.1987 19.9993 24.5434C20.0264 23.5317 19.2044 23.7822 18.7256 23.5702C14.1276 21.5081 11.3364 16.6998 10.5776 10.6485C10.4511 9.68489 10.7853 5.46438 9.85486 5.05004C8.49986 4.47189 8.9877 9.07783 8.9877 9.89688C8.96964 12.9033 8.54504 15.7555 7.09067 18.2223C5.43757 21.0263 3.51347 23.4449 0.839597 24.7169C0.613763 24.8229 0.405987 24.9674 0.19822 25.1216Z" fill="white"/>
</svg>
